<svg xmlns="http://www.w3.org/2000/svg" width="84.194" height="84.194" viewBox="0 0 84.194 84.194"><defs><style>.a{fill:#134563;}</style></defs><g transform="translate(92.294 92.294) rotate(180)"><g transform="translate(8.1 8.1)"><path class="a" d="M22.2-235.706a42.1,42.1,0,0,1-42.1-42.1,42.1,42.1,0,0,1,42.1-42.1,42.1,42.1,0,0,1,42.1,42.1,42.1,42.1,0,0,1-42.1,42.1Zm0-79.614A37.662,37.662,0,0,0-15.32-277.8,37.662,37.662,0,0,0,22.2-240.286,37.662,37.662,0,0,0,59.715-277.8,37.662,37.662,0,0,0,22.2-315.32Z" transform="translate(19.9 319.9)"/><path class="a" d="M14.931-261.438-9.2-285.569,14.931-309.7l3.17,3.347L-2.507-285.569,18.1-264.785l-3.17,3.347" transform="translate(28.047 327.666)"/><path class="a" d="M-7.3-297.4H34.973v4.932H-7.3Z" transform="translate(29.493 337.031)"/></g></g></svg>